# xmcd CD database file
#
# Track frame offsets:
#	150
#	44428
#	80087
#	99388
#	129242
#	162355
#	217427
#	238841
#	261995
#
# Disc length: 3670 seconds
#
# Revision: 0
# Processed by: cddbd v1.5.2PL0 Copyright (c) Steve Scherf et al.
# Submitted via: CDex 1.70beta3
#
DISCID=840e5409
DTITLE=Frode Gjerstad - Fred Longberg-Holm - Tistel
DYEAR=2011
DGENRE=Jazz
TTITLE0=Ffrreodde
TTITLE1=Offered Dr
TTITLE2=Reffed Rod
TTITLE3=Freed Ford
TTITLE4=Doffed Err
TTITLE5=Fodder Ref
TTITLE6=Redder Off
TTITLE7=Deffer Rod
TTITLE8=Erred Doff
EXTD=YEAR: 2011
EXTT0=
EXTT1=
EXTT2=
EXTT3=
EXTT4=
EXTT5=
EXTT6=
EXTT7=
EXTT8=
PLAYORDER=
